<svg width="27" height="27" viewBox="0 0 27 27" fill="none" xmlns="http://www.w3.org/2000/svg">
<path d="M13.5038 5.44719e-07C10.8336 -0.000757822 8.22316 0.790358 6.0026 2.2733C3.78203 3.75623 2.0511 5.86438 1.02873 8.33111C0.00636216 10.7978 -0.26153 13.5124 0.258937 16.1314C0.779405 18.7504 2.06485 21.1562 3.95271 23.0446C5.84056 24.933 8.24603 26.2191 10.8649 26.7403C13.4837 27.2615 16.1983 26.9944 18.6653 25.9727C21.1324 24.9511 23.241 23.2207 24.7246 21.0006C26.2081 18.7804 27 16.1702 27 13.5C26.997 9.92117 25.5742 6.48975 23.0439 3.95877C20.5137 1.4278 17.0827 0.00406148 13.5038 5.44719e-07ZM13.5038 25.4625C11.1368 25.4633 8.82269 24.762 6.85425 23.4474C4.88581 22.1328 3.35146 20.264 2.44528 18.0773C1.5391 15.8905 1.3018 13.4842 1.7634 11.1626C2.22501 8.84099 3.36477 6.70844 5.03852 5.03468C6.71228 3.36093 8.84482 2.22117 11.1664 1.75956C13.488 1.29796 15.8944 1.53526 18.0811 2.44144C20.2678 3.34762 22.1367 4.88197 23.4513 6.85041C24.7658 8.81885 25.4671 11.1329 25.4663 13.5C25.4623 16.6714 24.2007 19.7118 21.9581 21.9543C19.7156 24.1968 16.6752 25.4584 13.5038 25.4625Z" fill="#242254"/>
<path d="M19.9422 7.89068L10.5332 17.9054L7.31256 14.7231C7.16766 14.5802 6.97193 14.5008 6.76844 14.5022C6.56495 14.5037 6.37037 14.5859 6.2275 14.7308C6.08463 14.8757 6.00517 15.0714 6.00661 15.2749C6.00805 15.4784 6.09026 15.673 6.23517 15.8158L10.5754 20.1024L21.0541 8.94123C21.1318 8.87006 21.1939 8.78364 21.2367 8.68738C21.2795 8.59112 21.302 8.48708 21.3028 8.38175C21.3035 8.27641 21.2826 8.17205 21.2413 8.07515C21.2 7.97826 21.1392 7.89091 21.0626 7.81857C20.986 7.74623 20.8954 7.69044 20.7963 7.65467C20.6972 7.61891 20.5918 7.60395 20.4867 7.61071C20.3816 7.61748 20.279 7.64583 20.1853 7.694C20.0916 7.74217 20.0089 7.80912 19.9422 7.89068Z" fill="#242254"/>
</svg>
