<svg width="23" height="23" viewBox="0 0 23 23" fill="none" xmlns="http://www.w3.org/2000/svg">
<path d="M17.3617 9.06346L12.1904 13.9444V0.784715C12.1904 0.576596 12.1078 0.377 11.9606 0.229838C11.8134 0.0826751 11.6139 0 11.4057 0V0C11.1976 0 10.998 0.0826751 10.8509 0.229838C10.7037 0.377 10.621 0.576596 10.621 0.784715V13.964L5.49291 9.06738C5.41798 8.99645 5.32981 8.94098 5.23343 8.90416C5.13704 8.86734 5.03434 8.84988 4.93121 8.8528C4.82807 8.85572 4.72653 8.87894 4.63238 8.92115C4.53823 8.96336 4.45333 9.02372 4.38253 9.09877C4.23913 9.24717 4.15995 9.44609 4.16215 9.65245C4.16436 9.85881 4.24776 10.056 4.3943 10.2013L11.3783 16.8321L18.4407 10.2013C18.5898 10.061 18.6781 9.86804 18.6869 9.66354C18.6957 9.45903 18.6243 9.25918 18.4878 9.10662C18.4176 9.0284 18.3324 8.96509 18.2372 8.92044C18.1421 8.87578 18.0389 8.8507 17.9339 8.84667C17.8289 8.84265 17.7241 8.85976 17.6258 8.897C17.5275 8.93424 17.4377 8.99085 17.3617 9.06346Z" fill="#242254"/>
<path d="M22.1839 22.3839H0.823951C0.608782 22.384 0.402126 22.2999 0.248157 22.1496C0.0941884 21.9993 0.00512305 21.7947 0 21.5796L0 16.0081C0 15.8 0.0826751 15.6004 0.229838 15.4532C0.377 15.3061 0.576596 15.2234 0.784715 15.2234C0.992835 15.2234 1.19243 15.3061 1.33959 15.4532C1.48676 15.6004 1.56943 15.8 1.56943 16.0081V20.2534C1.56943 20.4022 1.62854 20.5449 1.73376 20.6502C1.83899 20.7554 1.9817 20.8145 2.1305 20.8145H20.9637C21.0875 20.8145 21.2063 20.7653 21.2938 20.6777C21.3814 20.5902 21.4306 20.4714 21.4306 20.3476V16.0081C21.4306 15.8 21.5132 15.6004 21.6604 15.4532C21.8076 15.3061 22.0072 15.2234 22.2153 15.2234C22.4234 15.2234 22.623 15.3061 22.7702 15.4532C22.9173 15.6004 23 15.8 23 16.0081V21.5796C22.9949 21.7933 22.9069 21.9967 22.7547 22.1468C22.6024 22.2969 22.3977 22.3819 22.1839 22.3839Z" fill="#242254"/>
</svg>
