<svg width="22" height="22" viewBox="0 0 22 22" fill="none" xmlns="http://www.w3.org/2000/svg">
<path d="M2.75 4.8125C2.37188 4.8125 2.0625 5.12188 2.0625 5.5V6.44961L9.47461 12.534C10.3641 13.2645 11.6402 13.2645 12.5297 12.534L19.9375 6.44961V5.5C19.9375 5.12188 19.6281 4.8125 19.25 4.8125H2.75ZM2.0625 9.11797V16.5C2.0625 16.8781 2.37188 17.1875 2.75 17.1875H19.25C19.6281 17.1875 19.9375 16.8781 19.9375 16.5V9.11797L13.8359 14.1281C12.1859 15.4816 9.80977 15.4816 8.16406 14.1281L2.0625 9.11797ZM0 5.5C0 3.9832 1.2332 2.75 2.75 2.75H19.25C20.7668 2.75 22 3.9832 22 5.5V16.5C22 18.0168 20.7668 19.25 19.25 19.25H2.75C1.2332 19.25 0 18.0168 0 16.5V5.5Z" fill="#242254" fill-opacity="0.5"/>
</svg>
