<svg width="43" height="43" viewBox="0 0 43 43" fill="none" xmlns="http://www.w3.org/2000/svg">
<path d="M5.375 9.40625C4.63594 9.40625 4.03125 10.0109 4.03125 10.75V12.6061L18.5186 24.4982C20.257 25.926 22.7514 25.926 24.4898 24.4982L38.9688 12.6061V10.75C38.9688 10.0109 38.3641 9.40625 37.625 9.40625H5.375ZM4.03125 17.8215V32.25C4.03125 32.9891 4.63594 33.5938 5.375 33.5938H37.625C38.3641 33.5938 38.9688 32.9891 38.9688 32.25V17.8215L27.043 27.6141C23.818 30.2596 19.1736 30.2596 15.957 27.6141L4.03125 17.8215ZM0 10.75C0 7.78535 2.41035 5.375 5.375 5.375H37.625C40.5896 5.375 43 7.78535 43 10.75V32.25C43 35.2146 40.5896 37.625 37.625 37.625H5.375C2.41035 37.625 0 35.2146 0 32.25V10.75Z" fill="#242254"/>
</svg>
