<svg width="24" height="24" viewBox="0 0 24 24" fill="none" xmlns="http://www.w3.org/2000/svg">
<path fill-rule="evenodd" clip-rule="evenodd" d="M12 21.5709L3.51499 13.0859C1.17599 10.7469 1.17599 6.93995 3.51499 4.60095C5.85399 2.26095 9.66099 2.26095 12 4.60095C14.339 2.26095 18.146 2.26095 20.485 4.60095C22.824 6.93995 22.824 10.7469 20.485 13.0859L12 21.5709ZM7.75699 4.84295C6.68899 4.84295 5.68399 5.25895 4.92799 6.01395C3.36799 7.57395 3.36799 10.1119 4.92799 11.6709L12 18.7429L19.071 11.6719C20.631 10.1119 20.631 7.57395 19.071 6.01495C17.56 4.50395 14.925 4.50395 13.414 6.01495C13.217 6.21195 13.032 6.45195 12.85 6.74495L12 8.11695L11.15 6.74495C10.968 6.45095 10.783 6.21195 10.586 6.01495C9.83099 5.25895 8.82599 4.84295 7.75699 4.84295Z" fill="#9A9AB0"/>
</svg>
