<svg width="20" height="20" viewBox="0 0 20 20" fill="none" xmlns="http://www.w3.org/2000/svg">
<path d="M15.0976 7.88127L10.6008 12.1256V0.682361C10.6008 0.501388 10.5289 0.327826 10.4009 0.199859C10.273 0.0718914 10.0994 0 9.91843 0V0C9.73746 0 9.5639 0.0718914 9.43593 0.199859C9.30796 0.327826 9.23607 0.501388 9.23607 0.682361V12.1426L4.77684 7.88468C4.71169 7.823 4.63502 7.77476 4.55121 7.74275C4.4674 7.71073 4.37809 7.69555 4.28841 7.69809C4.19873 7.70062 4.11043 7.72082 4.02856 7.75752C3.94669 7.79422 3.87286 7.84671 3.8113 7.91198C3.6866 8.04102 3.61775 8.21399 3.61967 8.39343C3.62158 8.57288 3.69411 8.74434 3.82154 8.87069L9.89455 14.6366L16.0358 8.87069C16.1654 8.74871 16.2423 8.58091 16.2499 8.40307C16.2576 8.22524 16.1954 8.05146 16.0767 7.9188C16.0157 7.85079 15.9416 7.79573 15.8589 7.7569C15.7761 7.71807 15.6864 7.69626 15.5951 7.69276C15.5038 7.68926 15.4127 7.70414 15.3272 7.73652C15.2417 7.76891 15.1636 7.81813 15.0976 7.88127Z" fill="#242254" fill-opacity="0.5"/>
<path d="M19.2903 19.4643H0.716479C0.529376 19.4644 0.349675 19.3913 0.215789 19.2606C0.0819029 19.1299 0.00445483 18.952 0 18.7649L0 13.9202C0 13.7392 0.0718914 13.5656 0.199859 13.4377C0.327826 13.3097 0.501388 13.2378 0.682361 13.2378C0.863334 13.2378 1.0369 13.3097 1.16486 13.4377C1.29283 13.5656 1.36472 13.7392 1.36472 13.9202V17.6117C1.36472 17.7411 1.41612 17.8652 1.50762 17.9567C1.59912 18.0482 1.72321 18.0996 1.85261 18.0996H18.2293C18.337 18.0996 18.4402 18.0568 18.5164 17.9807C18.5925 17.9046 18.6353 17.8013 18.6353 17.6936V13.9202C18.6353 13.7392 18.7072 13.5656 18.8351 13.4377C18.9631 13.3097 19.1367 13.2378 19.3176 13.2378C19.4986 13.2378 19.6722 13.3097 19.8001 13.4377C19.9281 13.5656 20 13.7392 20 13.9202V18.7649C19.9956 18.9508 19.9191 19.1277 19.7867 19.2582C19.6542 19.3887 19.4763 19.4626 19.2903 19.4643Z" fill="#242254" fill-opacity="0.5"/>
</svg>
