<svg width="20" height="23" viewBox="0 0 20 23" fill="none" xmlns="http://www.w3.org/2000/svg">
<path d="M9.95882 12.3354C10.1392 12.3354 10.3121 12.2638 10.4397 12.1362C10.5672 12.0087 10.6388 11.8357 10.6388 11.6554V0.680011C10.6388 0.499661 10.5672 0.326698 10.4397 0.199171C10.3121 0.0716439 10.1392 0 9.95882 0C9.77847 0 9.60551 0.0716439 9.47798 0.199171C9.35045 0.326698 9.27881 0.499661 9.27881 0.680011V11.6554C9.27881 11.8357 9.35045 12.0087 9.47798 12.1362C9.60551 12.2638 9.77847 12.3354 9.95882 12.3354Z" fill="#9A9AB0"/>
<path d="M15.8647 4.99121C15.7934 4.93329 15.7111 4.89041 15.6228 4.86515C15.5345 4.8399 15.442 4.83279 15.3509 4.84426C15.2598 4.85573 15.1719 4.88554 15.0926 4.93189C15.0134 4.97824 14.9443 5.04017 14.8896 5.11394C14.8349 5.18772 14.7957 5.27181 14.7744 5.36114C14.7531 5.45047 14.7501 5.5432 14.7656 5.63372C14.7811 5.72424 14.8147 5.81069 14.8646 5.88784C14.9144 5.96499 14.9793 6.03125 15.0555 6.08263C16.5188 7.15741 17.6053 8.66704 18.1597 10.396C18.7141 12.125 18.7081 13.9849 18.1425 15.7102C17.577 17.4356 16.4809 18.9382 15.0106 20.0035C13.5403 21.0688 11.771 21.6424 9.95537 21.6424C8.1397 21.6424 6.37043 21.0688 4.90015 20.0035C3.42987 18.9382 2.33372 17.4356 1.7682 15.7102C1.20268 13.9849 1.19668 12.125 1.75107 10.396C2.30546 8.66704 3.3919 7.15741 4.85528 6.08263C4.9416 6.03714 5.01711 5.97361 5.0767 5.89635C5.13629 5.8191 5.17856 5.72992 5.20063 5.63489C5.22271 5.53985 5.22407 5.44117 5.20463 5.34556C5.1852 5.24995 5.14541 5.15964 5.08798 5.08077C5.03055 5.00189 4.95682 4.9363 4.8718 4.88844C4.78677 4.84059 4.69244 4.81159 4.59522 4.80342C4.49799 4.79524 4.40015 4.80809 4.30833 4.84108C4.21651 4.87407 4.13286 4.92643 4.06307 4.99461C2.37074 6.23954 1.11482 7.98714 0.474485 9.98809C-0.165849 11.989 -0.157881 14.1411 0.497251 16.1373C1.15238 18.1334 2.42121 19.8717 4.12271 21.104C5.82421 22.3364 7.87146 22.9999 9.97237 22.9999C12.0733 22.9999 14.1205 22.3364 15.822 21.104C17.5235 19.8717 18.7924 18.1334 19.4475 16.1373C20.1026 14.1411 20.1106 11.989 19.4702 9.98809C18.8299 7.98714 17.574 6.23954 15.8817 4.99461L15.8647 4.99121Z" fill="#9A9AB0"/>
</svg>
