<svg width="23" height="23" viewBox="0 0 23 23" fill="none" xmlns="http://www.w3.org/2000/svg">
<path d="M21.8505 9.55721L19.5799 9.05687C19.5469 9.04899 19.5162 9.03341 19.4903 9.01139C19.4644 8.98938 19.4441 8.96155 19.4311 8.9302L19.0162 7.88201C19.0043 7.85052 18.9998 7.81671 19.0031 7.7832C19.0064 7.74969 19.0174 7.7174 19.0352 7.68884L20.3368 5.73813C20.5265 5.45273 20.6111 5.11017 20.5758 4.76924C20.5406 4.42832 20.3877 4.1103 20.1436 3.86976L19.1936 2.91974C18.9492 2.68188 18.6304 2.53536 18.2907 2.50479C17.9511 2.47423 17.6113 2.56149 17.3284 2.7519L15.4948 4.0186C15.4648 4.03883 15.4301 4.05093 15.394 4.0537C15.3579 4.05648 15.3217 4.04984 15.289 4.03443L14.187 3.51825C14.1592 3.50446 14.1346 3.4849 14.1149 3.46087C14.0953 3.43685 14.081 3.40891 14.073 3.37892L13.5409 1.1337C13.4656 0.81018 13.2827 0.521823 13.022 0.315859C12.7614 0.109896 12.4386 -0.00146492 12.1064 1.45533e-05H10.7669C10.432 0.00238959 10.1078 0.117855 9.84683 0.327672C9.58585 0.53749 9.40344 0.829344 9.32919 1.15587L8.83835 3.37258C8.83181 3.4036 8.8181 3.43264 8.7983 3.45739C8.7785 3.48214 8.75317 3.5019 8.72435 3.51509L7.53682 4.07243C7.50231 4.08942 7.46362 4.09607 7.42541 4.09157C7.38721 4.08708 7.35112 4.07163 7.32149 4.0471L5.70012 2.77724C5.41928 2.55826 5.06873 2.44823 4.71313 2.46743C4.35753 2.48664 4.02086 2.63379 3.76525 2.88174L2.81839 3.80009C2.56548 4.0423 2.40761 4.36703 2.37334 4.71553C2.33907 5.06404 2.43067 5.4133 2.63156 5.70013L3.87925 7.5115C3.89861 7.54062 3.91047 7.57406 3.91379 7.60887C3.9171 7.64368 3.91176 7.67876 3.89825 7.71101L3.32507 9.0632C3.31124 9.09518 3.28941 9.12305 3.26168 9.14413C3.23394 9.1652 3.20124 9.17878 3.16673 9.18354L1.20336 9.55404C0.865123 9.61631 0.559442 9.79524 0.339555 10.0597C0.119668 10.3241 -0.000492644 10.6573 1.51813e-06 11.0012V12.2331C-0.000200211 12.5796 0.121527 12.9151 0.343858 13.1809C0.566188 13.4466 0.874942 13.6257 1.21603 13.6866L3.11607 14.0255C3.14822 14.0311 3.17854 14.0444 3.20446 14.0642C3.23037 14.0841 3.25111 14.1099 3.2649 14.1395L3.95525 15.555C3.97107 15.5889 3.97764 15.6264 3.97431 15.6636C3.97097 15.7009 3.95784 15.7366 3.93625 15.7672L2.80573 17.3189C2.59762 17.6072 2.50036 17.9608 2.53177 18.315C2.56317 18.6692 2.72114 19.0002 2.97673 19.2474L3.92675 20.1468C4.1754 20.3863 4.50031 20.5309 4.84472 20.5552C5.18912 20.5795 5.53112 20.482 5.81096 20.2798L7.34365 19.1777C7.37161 19.1574 7.40426 19.1444 7.43858 19.1399C7.47289 19.1355 7.50777 19.1398 7.53999 19.1524L8.80668 19.6464C8.83961 19.6602 8.86866 19.6818 8.8913 19.7094C8.91393 19.737 8.92946 19.7698 8.93652 19.8048L9.28803 21.784C9.34773 22.1251 9.52598 22.4341 9.79134 22.6566C10.0567 22.8791 10.3921 23.0007 10.7384 23H12.0779C12.4106 22.9985 12.7329 22.8839 12.9919 22.675C13.2509 22.4661 13.4311 22.1753 13.5029 21.8505L13.997 19.7509C14.0045 19.7199 14.019 19.6909 14.0392 19.6663C14.0595 19.6416 14.0851 19.6218 14.1141 19.6084L15.2415 19.1112C15.2722 19.0949 15.3064 19.0863 15.3412 19.0863C15.376 19.0863 15.4103 19.0949 15.441 19.1112L17.2619 20.3273C17.5464 20.5172 17.8882 20.6021 18.2286 20.5675C18.569 20.5328 18.8866 20.3807 19.1271 20.1373L20.0137 19.2474C20.2472 19.0121 20.3943 18.7049 20.4311 18.3754C20.4679 18.046 20.3923 17.7139 20.2164 17.4329L19.0669 15.5772C19.0514 15.5485 19.0432 15.5164 19.0432 15.4838C19.0432 15.4511 19.0514 15.419 19.0669 15.3903L19.5419 14.2503C19.5547 14.2206 19.5743 14.1942 19.599 14.1734C19.6237 14.1525 19.653 14.1376 19.6844 14.13L21.879 13.5916C22.1991 13.5129 22.4835 13.3291 22.6867 13.0696C22.89 12.8101 23.0003 12.4899 23 12.1603V10.9949C23.002 10.6599 22.8889 10.3343 22.6797 10.0726C22.4704 9.81094 22.1777 9.629 21.8505 9.55721ZM21.7396 12.1508C21.74 12.1971 21.7245 12.2422 21.6957 12.2785C21.6669 12.3148 21.6265 12.3401 21.5813 12.3503L19.3804 12.8918C19.1557 12.9468 18.9471 13.0537 18.7711 13.2038C18.5952 13.3539 18.4568 13.5431 18.367 13.7563L17.8794 14.9312C17.7905 15.1477 17.7539 15.3821 17.7726 15.6154C17.7913 15.8487 17.8648 16.0743 17.987 16.2738L19.1366 18.1296C19.1615 18.1687 19.1723 18.2152 19.1671 18.2613C19.1619 18.3074 19.1411 18.3503 19.1081 18.3829L18.2245 19.2759C18.1907 19.3103 18.1458 19.3316 18.0977 19.3363C18.0497 19.3409 18.0015 19.3285 17.9617 19.3012L16.1503 18.0884C15.9448 17.9495 15.7073 17.8653 15.4602 17.8437C15.213 17.8221 14.9645 17.8638 14.738 17.9649L13.6169 18.4621C13.4089 18.5546 13.2249 18.6939 13.0794 18.8691C12.9338 19.0443 12.8306 19.2507 12.7778 19.4722L12.2838 21.575C12.273 21.6204 12.247 21.6609 12.2102 21.6897C12.1734 21.7185 12.1278 21.7338 12.0811 21.7333H10.7289C10.6804 21.7332 10.6334 21.7161 10.5963 21.6848C10.5593 21.6535 10.5344 21.6101 10.5262 21.5623L10.1747 19.5831C10.1291 19.3349 10.0212 19.1025 9.86116 18.9075C9.70107 18.7125 9.49404 18.5614 9.25953 18.4684L7.99283 17.9712C7.81993 17.905 7.63646 17.8707 7.45132 17.8699C7.14301 17.8698 6.8426 17.9674 6.59314 18.1486L5.06677 19.2537C5.02716 19.2821 4.97891 19.2957 4.93035 19.2922C4.88178 19.2887 4.83595 19.2684 4.80077 19.2347L3.86658 18.3354C3.83034 18.3006 3.80783 18.254 3.80318 18.2039C3.79853 18.1539 3.81204 18.1039 3.84125 18.0631L4.9686 16.5145C5.12652 16.2989 5.22265 16.0443 5.24664 15.7782C5.27064 15.512 5.22159 15.2444 5.10477 15.004L4.41443 13.5853C4.31297 13.376 4.16336 13.1937 3.97787 13.0533C3.79237 12.9129 3.57626 12.8185 3.34724 12.7778L1.4472 12.4389C1.39738 12.4321 1.35171 12.4075 1.31855 12.3697C1.2854 12.3319 1.26699 12.2834 1.26669 12.2331V11.0012C1.26674 10.9527 1.28392 10.9058 1.31521 10.8687C1.3465 10.8316 1.38988 10.8068 1.4377 10.7986L3.40424 10.4312C3.64408 10.3874 3.86923 10.2845 4.0594 10.1319C4.24957 9.97934 4.39879 9.78184 4.49359 9.55721L5.06677 8.19868C5.16352 7.97062 5.20091 7.72175 5.17543 7.47532C5.14996 7.2289 5.06246 6.99294 4.9211 6.78949L3.67341 4.97812C3.6453 4.93801 3.6324 4.8892 3.63705 4.84044C3.64169 4.79169 3.66357 4.74619 3.69874 4.71211L4.64876 3.79059C4.68474 3.75577 4.73201 3.73502 4.78199 3.73212C4.83197 3.72921 4.88134 3.74434 4.9211 3.77476L6.5393 5.04145C6.75322 5.21021 7.00984 5.31617 7.2805 5.34748C7.55116 5.3788 7.8252 5.33424 8.072 5.21879L9.26586 4.66461C9.47063 4.56799 9.65067 4.42592 9.79225 4.24922C9.93383 4.07251 10.0332 3.86584 10.0829 3.64492L10.5706 1.42821C10.5814 1.3837 10.6065 1.34391 10.6419 1.3148C10.6772 1.28568 10.7211 1.26881 10.7669 1.26671H12.1001C12.1468 1.26617 12.1924 1.28155 12.2292 1.31033C12.266 1.3391 12.292 1.37956 12.3028 1.42504L12.8348 3.67026C12.8856 3.88621 12.9846 4.08785 13.1245 4.26006C13.2643 4.43227 13.4414 4.57058 13.6423 4.66461L14.7348 5.17762C14.9668 5.28656 15.2232 5.33305 15.4787 5.3125C15.7342 5.29195 15.9799 5.20507 16.1915 5.06045L18.0504 3.80009C18.0894 3.77266 18.1368 3.75985 18.1842 3.7639C18.2317 3.76796 18.2763 3.78862 18.31 3.82226L19.2601 4.77228C19.2949 4.80577 19.3169 4.85046 19.3221 4.89852C19.3273 4.94658 19.3154 4.99493 19.2886 5.03512L17.9902 6.98266C17.8577 7.18096 17.7752 7.40843 17.7498 7.64559C17.7245 7.88274 17.757 8.1225 17.8445 8.34435L18.2594 9.39254C18.3484 9.61801 18.4914 9.81819 18.6758 9.97553C18.8602 10.1329 19.0804 10.2426 19.3171 10.2951L21.5813 10.7954C21.6271 10.8049 21.6682 10.83 21.6976 10.8663C21.7271 10.9027 21.743 10.9481 21.7428 10.9949L21.7396 12.1508Z" fill="#9A9AB0"/>
<path d="M11.5015 7.25488C10.6614 7.25426 9.84009 7.50278 9.14133 7.96902C8.44256 8.43526 7.89777 9.09827 7.57587 9.87418C7.25397 10.6501 7.16942 11.504 7.33292 12.328C7.49642 13.152 7.90062 13.9089 8.49439 14.5031C9.08816 15.0974 9.84482 15.5021 10.6687 15.6662C11.4925 15.8303 12.3465 15.7464 13.1227 15.4251C13.8988 15.1038 14.5622 14.5595 15.029 13.8611C15.4957 13.1627 15.7449 12.3415 15.7449 11.5015C15.744 10.376 15.2968 9.29684 14.5013 8.50072C13.7058 7.70461 12.6269 7.25656 11.5015 7.25488ZM11.5015 14.6714C10.8751 14.6714 10.2629 14.4856 9.74212 14.1377C9.22136 13.7897 8.81547 13.2951 8.57579 12.7165C8.3361 12.1378 8.27339 11.5011 8.39558 10.8868C8.51777 10.2726 8.81937 9.7083 9.26225 9.26542C9.70512 8.82255 10.2694 8.52094 10.8837 8.39875C11.498 8.27657 12.1347 8.33928 12.7133 8.57896C13.292 8.81864 13.7865 9.22453 14.1345 9.7453C14.4825 10.2661 14.6682 10.8783 14.6682 11.5046C14.6682 11.9205 14.5863 12.3323 14.4271 12.7165C14.268 13.1007 14.0347 13.4498 13.7407 13.7439C13.4466 14.0379 13.0975 14.2712 12.7133 14.4303C12.3291 14.5895 11.9173 14.6714 11.5015 14.6714Z" fill="#9A9AB0"/>
</svg>
