<svg width="26" height="23" viewBox="0 0 26 23" fill="none" xmlns="http://www.w3.org/2000/svg">
<path d="M23.1222 0H1.98919C1.4619 0.000899048 0.956465 0.210763 0.583614 0.583614C0.210763 0.956465 0.000899048 1.4619 0 1.98919L0 14.4412C0.000895757 14.9688 0.21065 15.4746 0.583405 15.848C0.95616 16.2214 1.46159 16.432 1.98919 16.4338H23.1222C23.6501 16.4329 24.1561 16.2226 24.529 15.849C24.902 15.4754 25.1114 14.9691 25.1114 14.4412V1.98919C25.1105 1.4619 24.9007 0.956465 24.5278 0.583614C24.155 0.210763 23.6495 0.000899048 23.1222 0V0ZM23.7513 14.4412C23.7518 14.5241 23.7358 14.6063 23.7044 14.683C23.673 14.7597 23.6267 14.8294 23.5683 14.8882C23.5098 14.947 23.4403 14.9936 23.3638 15.0255C23.2872 15.0573 23.2051 15.0737 23.1222 15.0737H1.98919C1.9063 15.0737 1.82422 15.0573 1.74767 15.0255C1.67113 14.9936 1.60163 14.947 1.54317 14.8882C1.48471 14.8294 1.43845 14.7597 1.40704 14.683C1.37562 14.6063 1.35968 14.5241 1.36013 14.4412V1.98919C1.36013 1.82236 1.42641 1.66235 1.54438 1.54438C1.66235 1.42641 1.82236 1.36013 1.98919 1.36013H23.1222C23.2891 1.36013 23.4491 1.42641 23.5671 1.54438C23.685 1.66235 23.7513 1.82236 23.7513 1.98919V14.4412Z" fill="#9A9AB0"/>
<path d="M16.8895 21.1943C16.3965 20.8712 16.2095 20.0075 16.1924 19.6743V16.8962H14.8323V19.7457C14.8756 20.2894 15.0209 20.82 15.2608 21.3099H9.86104C10.0995 20.8193 10.2459 20.2891 10.2929 19.7457V16.8962H8.93275V19.6743C8.90554 20.0143 8.72873 20.8712 8.23568 21.1943C8.09055 21.2884 7.97973 21.4269 7.91972 21.5891C7.85971 21.7513 7.85372 21.9286 7.90265 22.0945C7.95158 22.2604 8.05281 22.4061 8.19126 22.5098C8.3297 22.6135 8.49795 22.6697 8.67092 22.67H16.4543C16.6272 22.6697 16.7955 22.6135 16.9339 22.5098C17.0724 22.4061 17.1736 22.2604 17.2225 22.0945C17.2715 21.9286 17.2655 21.7513 17.2055 21.5891C17.1455 21.4269 17.0346 21.2884 16.8895 21.1943Z" fill="#9A9AB0"/>
</svg>
