<svg width="23" height="22" viewBox="0 0 23 22" fill="none" xmlns="http://www.w3.org/2000/svg">
<path d="M20.559 0H2.1568C1.58504 0.000834083 1.03693 0.228336 0.632634 0.632634C0.228336 1.03693 0.000834083 1.58504 0 2.1568L0 19.8432C0.000834083 20.415 0.228336 20.9631 0.632634 21.3674C1.03693 21.7717 1.58504 21.9992 2.1568 22H20.559C21.1288 21.9967 21.6742 21.768 22.0759 21.3638C22.4777 20.9597 22.7032 20.413 22.7032 19.8432V2.1568C22.7032 1.58696 22.4777 1.04027 22.0759 0.636154C21.6742 0.232036 21.1288 0.0033324 20.559 0ZM2.1568 1.26129H20.559C20.7943 1.2646 21.0188 1.36041 21.1841 1.52799C21.3493 1.69558 21.4419 1.92147 21.4419 2.1568V5.2911H1.26129V2.1568C1.26129 1.9193 1.35564 1.69152 1.52358 1.52358C1.69152 1.35564 1.9193 1.26129 2.1568 1.26129ZM20.559 20.7387H2.1568C1.9193 20.7387 1.69152 20.6444 1.52358 20.4764C1.35564 20.3085 1.26129 20.0807 1.26129 19.8432V6.55239H21.4419V19.8432C21.4419 20.0785 21.3493 20.3044 21.1841 20.472C21.0188 20.6396 20.7943 20.7354 20.559 20.7387Z" fill="#9A9AB0"/>
</svg>
