<svg width="19" height="15" viewBox="0 0 19 15" fill="none" xmlns="http://www.w3.org/2000/svg">
<g clip-path="url(#clip0_1_1786)">
<path d="M17.2129 7.84268C18.8903 6.18741 18.8903 3.50674 17.2129 1.85147C15.7286 0.386626 13.3892 0.196197 11.6821 1.4003L11.6346 1.43252C11.2071 1.73428 11.1092 2.32022 11.415 2.73917C11.7207 3.15811 12.3145 3.25772 12.739 2.95596L12.7865 2.92374C13.7395 2.25284 15.0428 2.35831 15.8681 3.17569C16.8032 4.09854 16.8032 5.59268 15.8681 6.51553L12.5371 9.8085C11.602 10.7314 10.0879 10.7314 9.15277 9.8085C8.32449 8.99112 8.21762 7.70499 8.89746 6.76749L8.93012 6.72061C9.2359 6.29874 9.13496 5.7128 8.71043 5.41397C8.2859 5.11514 7.68918 5.21182 7.38637 5.63077L7.35371 5.67764C6.13059 7.35928 6.32355 9.66788 7.80793 11.1327C9.48527 12.788 12.2017 12.788 13.879 11.1327L17.2129 7.84268ZM1.7873 7.15713C0.109961 8.81241 0.109961 11.4931 1.7873 13.1483C3.27168 14.6132 5.61105 14.8036 7.31809 13.5995L7.36559 13.5673C7.79309 13.2655 7.89105 12.6796 7.58527 12.2606C7.27949 11.8417 6.68574 11.7421 6.26121 12.0439L6.21371 12.0761C5.26074 12.747 3.95746 12.6415 3.13215 11.8241C2.19699 10.8983 2.19699 9.4042 3.13215 8.48135L6.46309 5.19131C7.39824 4.26846 8.9123 4.26846 9.84746 5.19131C10.6757 6.0087 10.7826 7.29483 10.1028 8.23526L10.0701 8.28213C9.76434 8.70401 9.86527 9.28995 10.2898 9.58877C10.7143 9.8876 11.3111 9.79092 11.6139 9.37198L11.6465 9.3251C12.8696 7.64053 12.6767 5.33194 11.1923 3.86709C9.51496 2.21182 6.79855 2.21182 5.12121 3.86709L1.7873 7.15713Z" fill="#242254" fill-opacity="0.5"/>
</g>
<defs>
<clipPath id="clip0_1_1786">
<rect width="19" height="15" fill="white"/>
</clipPath>
</defs>
</svg>
