<svg width="39" height="45" viewBox="0 0 39 45" fill="none" xmlns="http://www.w3.org/2000/svg">
<path d="M33.1587 8.53418C29.5112 4.84277 24.6536 2.8125 19.4913 2.8125C8.83594 2.8125 0.165402 11.5664 0.165402 22.3242C0.165402 25.7607 1.05335 29.1182 2.74219 32.0801L0 42.1875L10.2462 39.4717C13.0667 41.0273 16.2442 41.8447 19.4826 41.8447H19.4913C30.1379 41.8447 39 33.0908 39 22.333C39 17.1211 36.8063 12.2256 33.1587 8.53418ZM19.4913 38.5576C16.6011 38.5576 13.7719 37.7754 11.3083 36.2988L10.725 35.9473L4.64866 37.5557L6.26786 31.5703L5.88482 30.9551C4.27433 28.3711 3.42991 25.3916 3.42991 22.3242C3.42991 13.3857 10.6379 6.1084 19.5 6.1084C23.7917 6.1084 27.8223 7.7959 30.8518 10.8633C33.8813 13.9307 35.7442 18 35.7355 22.333C35.7355 31.2803 28.3446 38.5576 19.4913 38.5576ZM28.3011 26.4111C27.8223 26.165 25.4458 24.9873 25.0018 24.8291C24.5578 24.6621 24.2357 24.583 23.9136 25.0752C23.5915 25.5674 22.6688 26.6572 22.3815 26.9912C22.1029 27.3164 21.8156 27.3604 21.3368 27.1143C18.4989 25.6816 16.6359 24.5566 14.7643 21.3135C14.2681 20.4521 15.2605 20.5137 16.1833 18.6504C16.34 18.3252 16.2616 18.0439 16.1397 17.7979C16.0179 17.5518 15.0516 15.1523 14.6511 14.1768C14.2594 13.2275 13.8589 13.3594 13.5629 13.3418C13.2844 13.3242 12.9623 13.3242 12.6402 13.3242C12.3181 13.3242 11.7958 13.4473 11.3518 13.9307C10.9078 14.4229 9.66295 15.6006 9.66295 18C9.66295 20.3994 11.3953 22.7197 11.6304 23.0449C11.8741 23.3701 15.0342 28.292 19.883 30.4102C22.9473 31.7461 24.1487 31.8604 25.6808 31.6318C26.6123 31.4912 28.5362 30.4541 28.9366 29.3115C29.3371 28.1689 29.3371 27.1934 29.2152 26.9912C29.102 26.7715 28.7799 26.6484 28.3011 26.4111Z" fill="#242254"/>
</svg>
